<?xml version="1.0" standalone="no"?><!DOCTYPE svg PUBLIC "-//W3C//DTD SVG 1.1//EN" "http://www.w3.org/Graphics/SVG/1.1/DTD/svg11.dtd"><svg t="1780386987129" class="icon" viewBox="0 0 1024 1024" version="1.1" xmlns="http://www.w3.org/2000/svg" p-id="5976" xmlns:xlink="http://www.w3.org/1999/xlink" width="200" height="200"><path d="M881.5 255.6c13.5-13.2 25.5-29.3 31.2-47 15.1-47.2 7.6-90.9-1.9-120.2-6.9-21.2-29.8-32.5-50.9-25.3-32.9 11.2-81.5 29.3-112.3 47.5-73.1 43.1-209.9 130.3-295.7 273.7 0 0 0.9 0.7 0 0C389 484.8 358.2 591 365.1 685.8c0 0.7-0.1 1.5-0.1 2.2 0 3.1 0.4 6.1 1.1 8.9 0.1 0.8 0.2 1.5 0.2 2.3 1.9 17 16.4 28.5 32.9 26.6 1.2 0.1 2.5 0.2 3.8 0.2h264c21 0 38-17 38-38s-17-38-38-38H438.4c3.3-51.4 22.9-121.3 44.4-167.1 9.1-19.4 19.5-38.4 31-57.1 16.8 10.3 34.9 20.6 51.4 28.1 51.2 23.3 122.2 11.9 148.6-15.3 71.1-73.1 70.6-140.6 70.6-140.6 10.6 0 21.3-1.6 31.1-4 44.4 62.5 68.4 137 68.4 215.2 0 98.6-39.3 193.3-109 262.9-70.3 70.3-163.7 109-263 109s-192.8-38.7-263-109c-70.3-70.3-109-163.7-109-263 0-99.4 38.7-192.8 109-263 70.3-70.3 163.7-109 263-109 4.1 0 8.2 0.1 12.3 0.2 9 0.3 17.8-2.6 24.8-8.2 0.3-0.2 0.5-0.4 0.8-0.6 27.5-21.8 12.8-65.9-22.3-67.1-6.9-0.2-13.9-0.3-20.9-0.2C262.9 63.8 65.3 262.7 64 506.6 62.7 752.9 260.2 953.4 505.4 957c250.4 3.6 454.4-197.1 454.6-447.5 0.1-94.2-28.9-181.7-78.5-253.9z m-42-77.6c-8.8 22.2-21.1 37.7-30.7 44.9-22.1 16.5-49.4 24.7-65.8 27.6-8.3 1.5-14.8 8.1-16.1 16.4-4.9 29.8-19.6 96.5-54.1 121.5-11.5 8.3-50.9 7.8-76-3.7-11.7-5.3-25.1-12.8-38.3-20.8 26.7-33.4 58.4-65.5 94.7-95.8 16.4-13.6 32.7-26.1 48.4-37.4l14.7-10.4c26.7-18.4 51-33.2 69.9-44.4 15-8.9 37.1-18.4 59.2-26.9-0.3 10.2-2.3 19.9-5.9 29z" fill="#A658C3" p-id="5977"></path></svg>