<?xml version="1.0" standalone="no"?><!DOCTYPE svg PUBLIC "-//W3C//DTD SVG 1.1//EN" "http://www.w3.org/Graphics/SVG/1.1/DTD/svg11.dtd"><svg t="1779872130983" class="icon" viewBox="0 0 1024 1024" version="1.1" xmlns="http://www.w3.org/2000/svg" p-id="6275" xmlns:xlink="http://www.w3.org/1999/xlink" width="200" height="200"><path d="M707.242667 116.864a42.666667 42.666667 0 0 1 9.941333 59.477333l-172.586667 242.005334-278.570666-166.698667a42.666667 42.666667 0 0 1 43.818666-73.216l210.986667 126.293333 126.890667-177.92a42.666667 42.666667 0 0 1 59.52-9.941333zM799.701333 828.842667c0 28.032-22.528 50.773333-50.389333 50.773333a50.602667 50.602667 0 0 1-50.389333-50.773333c0-28.032 22.570667-50.773333 50.346666-50.773334 27.904 0 50.432 22.741333 50.432 50.773334zM325.12 828.842667c0 28.032-22.613333 50.773333-50.432 50.773333a50.602667 50.602667 0 0 1-50.389333-50.773333c0-28.032 22.570667-50.773333 50.346666-50.773334 27.861333 0 50.432 22.741333 50.432 50.773334z" fill="#FB813A" p-id="6276"></path><path d="M205.354667 828.842667h613.290666a64 64 0 0 0 64-64V342.784a64 64 0 0 0-64-64H205.354667a64 64 0 0 0-64 64v422.058667a64 64 0 0 0 64 64z" fill="#FDDE80" p-id="6277"></path><path d="M512 718.848c-90.496 0-163.84-73.856-163.84-165.034667 0-91.178667 73.344-165.034667 163.84-165.034666 90.453333 0 163.84 73.856 163.84 165.034666 0 91.178667-73.386667 165.034667-163.84 165.034667z" fill="#FB813A" p-id="6278"></path><path d="M446.848 497.749333c0-23.893333 16.810667-33.706667 37.418667-21.76l96.384 56.064c20.565333 11.946667 20.565333 31.573333 0 43.52l-96.426667 56.021334c-20.565333 11.989333-37.376 2.218667-37.376-21.76v-112.085334z" fill="#FDDE80" p-id="6279"></path></svg>