<?xml version="1.0" standalone="no"?><!DOCTYPE svg PUBLIC "-//W3C//DTD SVG 1.1//EN" "http://www.w3.org/Graphics/SVG/1.1/DTD/svg11.dtd"><svg t="1779872452819" class="icon" viewBox="0 0 1024 1024" version="1.1" xmlns="http://www.w3.org/2000/svg" p-id="12712" xmlns:xlink="http://www.w3.org/1999/xlink" width="200" height="200"><path d="M119.466667 303.786667c68.266667-78.506667 126.293333-167.253333 119.466666-266.24V6.826667c-3.413333-3.413333 0-6.826667 6.826667-6.826667h6.826667c211.626667 0 382.293333 163.84 382.293333 365.226667 0 13.653333 0 30.72-3.413333 44.373333 0 6.826667 6.826667 13.653333 13.653333 6.826667 61.44-58.026667 102.4-136.533333 109.226667-225.28 0-6.826667 6.826667-10.24 13.653333-6.826667 139.946667 81.92 232.106667 228.693333 232.106667 399.36 0 191.146667-122.88 358.4-296.96 430.08-30.72 10.24-64.853333 13.653333-98.986667 3.413333-75.093333-20.48-146.773333-61.44-208.213333-119.466666-23.893333-20.48-40.96-44.373333-58.026667-71.68-3.413333-6.826667-13.653333-3.413333-13.653333 3.413333-17.066667 51.2-27.306667 105.813333-23.893334 160.426667 0 6.826667-6.826667 10.24-13.653333 6.826666C129.706667 918.186667 23.893333 764.586667 23.893333 583.68c0-98.986667 30.72-197.973333 88.746667-273.066667" fill="#FF5F71" p-id="12713"></path></svg>